<svg xmlns="http://www.w3.org/2000/svg" role="img" aria-labelledby="heading description" viewBox="0 0 1400 1010">
<title id="heading">A separate PreStocks desk</title><desc id="description">The owner controls the mandate and exit; a bounded operator chooses timing. Three rows of four connected stages. Node details and authority boundaries are available in the interactive documentation.</desc>
<defs><marker id="tip" markerWidth="8" markerHeight="8" refX="7" refY="4" orient="auto"><path d="M0 0 8 4 0 8Z" fill="#C23F1C"/></marker></defs>
<style>.background{fill:#F4EEE3}.node{fill:#FFFAF2;stroke:#D9D0C2;stroke-width:2}.heading,.title{font-family:Arial,sans-serif;fill:#211C18;font-weight:700}.heading{font-size:36px}.title{font-size:22px}.sub{font:16px Arial,sans-serif;fill:#6A625A}.num,.row{font:700 15px Arial,sans-serif;fill:#C23F1C}.arrow{stroke:#C23F1C;stroke-width:2.5}.arrow-label{font:12px Arial,sans-serif;fill:#6A625A}.footer{font:14px Arial,sans-serif;fill:#6A625A}</style>
<rect width="1400" height="1010" class="background"/>
<text x="32" y="66" class="heading">A separate PreStocks desk</text>
<text x="32" y="101" class="sub">The owner controls the mandate and exit; a bounded operator chooses timing.</text>
<path d="M32 123H1368" stroke="#D9D0C2" stroke-width="2"/>
<text x="32" y="183" class="row">01 · Owner authority</text><g><rect x="32" y="200" width="308" height="152" rx="15" class="node"/><text x="52" y="227" class="num">1.1</text><text class="title" x="52" y="266">Owner wallet</text><text class="sub" x="52" y="320">Mandate, deposit, withdrawal</text></g><g><rect x="382" y="200" width="308" height="152" rx="15" class="node"/><text x="402" y="227" class="num">1.2</text><text class="title" x="402" y="266">Desk studio</text><text class="sub" x="402" y="320">Draft and practice</text></g><g><rect x="732" y="200" width="308" height="152" rx="15" class="node"/><text x="752" y="227" class="num">1.3</text><text class="title" x="752" y="266">Mainnet desk PDA</text><text class="sub" x="752" y="320">USDC + PreStocks tokens</text></g><g><rect x="1082" y="200" width="308" height="152" rx="15" class="node"/><text x="1102" y="227" class="num">1.4</text><text class="title" x="1102" y="266">Owner exit</text><text class="sub" x="1102" y="320">Pause, withdraw, close</text></g><path d="M342 276h31" class="arrow" marker-end="url(#tip)"/><text x="355" y="379" class="arrow-label" text-anchor="middle">signed mandate</text><path d="M692 276h31" class="arrow" marker-end="url(#tip)"/><text x="705" y="379" class="arrow-label" text-anchor="middle">future live setup</text><path d="M1042 276h31" class="arrow" marker-end="url(#tip)"/><text x="1055" y="379" class="arrow-label" text-anchor="middle">owner-only call</text><text x="32" y="418" class="row">02 · Decision and checks</text><g><rect x="32" y="435" width="308" height="152" rx="15" class="node"/><text x="52" y="462" class="num">2.1</text><text class="title" x="52" y="501">PreStocks marks</text><text class="sub" x="52" y="555">Catalogue + token price</text></g><g><rect x="382" y="435" width="308" height="152" rx="15" class="node"/><text x="402" y="462" class="num">2.2</text><text class="title" x="402" y="501">Desk runner</text><text class="sub" x="402" y="555">Hourly price, quote and timing</text><text class="sub" x="402" y="573">check</text></g><g><rect x="732" y="435" width="308" height="152" rx="15" class="node"/><text x="752" y="462" class="num">2.3</text><text class="title" x="752" y="501">Price attestor</text><text class="sub" x="752" y="555">Fresh signed reference</text></g><g><rect x="1082" y="435" width="308" height="152" rx="15" class="node"/><text x="1102" y="462" class="num">2.4</text><text class="title" x="1102" y="501">agari-desk checks</text><text class="sub" x="1102" y="555">Allowlist, caps, premium, output</text></g><path d="M342 511h31" class="arrow" marker-end="url(#tip)"/><text x="355" y="614" class="arrow-label" text-anchor="middle">observed mark</text><path d="M692 511h31" class="arrow" marker-end="url(#tip)"/><text x="705" y="614" class="arrow-label" text-anchor="middle">attested input</text><path d="M1042 511h31" class="arrow" marker-end="url(#tip)"/><text x="1055" y="614" class="arrow-label" text-anchor="middle">verified instruction</text><text x="32" y="653" class="row">03 · Execution and record</text><g><rect x="32" y="670" width="308" height="152" rx="15" class="node"/><text x="52" y="697" class="num">3.1</text><text class="title" x="52" y="736">Desk assets</text><text class="sub" x="52" y="790">PDA token accounts</text></g><g><rect x="382" y="670" width="308" height="152" rx="15" class="node"/><text x="402" y="697" class="num">3.2</text><text class="title" x="402" y="736">Jupiter route</text><text class="sub" x="402" y="790">Swap by CPI</text></g><g><rect x="732" y="670" width="308" height="152" rx="15" class="node"/><text x="752" y="697" class="num">3.3</text><text class="title" x="752" y="736">Hash chain</text><text class="sub" x="752" y="790">Decision record seal</text></g><g><rect x="1082" y="670" width="308" height="152" rx="15" class="node"/><text x="1102" y="697" class="num">3.4</text><text class="title" x="1102" y="736">Desk cockpit</text><text class="sub" x="1102" y="790">Value, activity, rules</text></g><path d="M342 746h31" class="arrow" marker-end="url(#tip)"/><text x="355" y="849" class="arrow-label" text-anchor="middle">bounded swap</text><path d="M692 746h31" class="arrow" marker-end="url(#tip)"/><text x="705" y="849" class="arrow-label" text-anchor="middle">transaction record</text><path d="M1042 746h31" class="arrow" marker-end="url(#tip)"/><text x="1055" y="849" class="arrow-label" text-anchor="middle">read and compare</text>
<path d="M32 920H1368" stroke="#D9D0C2" stroke-width="2"/>
<text x="32" y="951" class="footer">Agari architecture · Source reviewed 23 September 2026 · Solana devnet unless labeled as a future mainnet desk</text>
<text x="32" y="979" class="footer">Open the interactive diagram for authority and trust details.</text>
</svg>